<svg width="16" height="21" viewBox="0 0 16 21" fill="none" xmlns="http://www.w3.org/2000/svg">
<path d="M4.42439 15.5C4.42439 15.3103 4.25698 15.1429 4.06724 15.1429H3.35296C3.16323 15.1429 2.99581 15.3103 2.99581 15.5V16.2143C2.99581 16.404 3.16323 16.5714 3.35296 16.5714H4.06724C4.25698 16.5714 4.42439 16.404 4.42439 16.2143V15.5ZM4.42439 12.6429C4.42439 12.4531 4.25698 12.2857 4.06724 12.2857H3.35296C3.16323 12.2857 2.99581 12.4531 2.99581 12.6429V13.3571C2.99581 13.5469 3.16323 13.7143 3.35296 13.7143H4.06724C4.25698 13.7143 4.42439 13.5469 4.42439 13.3571V12.6429ZM7.28153 12.6429C7.28153 12.4531 7.11412 12.2857 6.92439 12.2857H6.2101C6.02037 12.2857 5.85296 12.4531 5.85296 12.6429V13.3571C5.85296 13.5469 6.02037 13.7143 6.2101 13.7143H6.92439C7.11412 13.7143 7.28153 13.5469 7.28153 13.3571V12.6429ZM4.42439 9.78571C4.42439 9.59598 4.25698 9.42857 4.06724 9.42857H3.35296C3.16323 9.42857 2.99581 9.59598 2.99581 9.78571V10.5C2.99581 10.6897 3.16323 10.8571 3.35296 10.8571H4.06724C4.25698 10.8571 4.42439 10.6897 4.42439 10.5V9.78571ZM12.9958 15.5C12.9958 15.3103 12.8284 15.1429 12.6387 15.1429H11.9244C11.7347 15.1429 11.5672 15.3103 11.5672 15.5V16.2143C11.5672 16.404 11.7347 16.5714 11.9244 16.5714H12.6387C12.8284 16.5714 12.9958 16.404 12.9958 16.2143V15.5ZM10.1387 12.6429C10.1387 12.4531 9.97126 12.2857 9.78153 12.2857H9.06724C8.87751 12.2857 8.7101 12.4531 8.7101 12.6429V13.3571C8.7101 13.5469 8.87751 13.7143 9.06724 13.7143H9.78153C9.97126 13.7143 10.1387 13.5469 10.1387 13.3571V12.6429ZM7.28153 9.78571C7.28153 9.59598 7.11412 9.42857 6.92439 9.42857H6.2101C6.02037 9.42857 5.85296 9.59598 5.85296 9.78571V10.5C5.85296 10.6897 6.02037 10.8571 6.2101 10.8571H6.92439C7.11412 10.8571 7.28153 10.6897 7.28153 10.5V9.78571ZM12.9958 12.6429C12.9958 12.4531 12.8284 12.2857 12.6387 12.2857H11.9244C11.7347 12.2857 11.5672 12.4531 11.5672 12.6429V13.3571C11.5672 13.5469 11.7347 13.7143 11.9244 13.7143H12.6387C12.8284 13.7143 12.9958 13.5469 12.9958 13.3571V12.6429ZM10.1387 9.78571C10.1387 9.59598 9.97126 9.42857 9.78153 9.42857H9.06724C8.87751 9.42857 8.7101 9.59598 8.7101 9.78571V10.5C8.7101 10.6897 8.87751 10.8571 9.06724 10.8571H9.78153C9.97126 10.8571 10.1387 10.6897 10.1387 10.5V9.78571ZM12.9958 9.78571C12.9958 9.59598 12.8284 9.42857 12.6387 9.42857H11.9244C11.7347 9.42857 11.5672 9.59598 11.5672 9.78571V10.5C11.5672 10.6897 11.7347 10.8571 11.9244 10.8571H12.6387C12.8284 10.8571 12.9958 10.6897 12.9958 10.5V9.78571ZM10.1387 19.4286V16.9286C10.1387 16.7388 9.97126 16.5714 9.78153 16.5714H6.2101C6.02037 16.5714 5.85296 16.7388 5.85296 16.9286V19.4286H1.56724V6.57143H4.42439V6.92857C4.42439 7.52009 4.9043 8 5.49582 8H10.4958C11.0873 8 11.5672 7.52009 11.5672 6.92857V6.57143H14.4244V19.4286H10.1387ZM10.1387 6.21429C10.1387 6.40402 9.97126 6.57143 9.78153 6.57143H9.06724C8.87751 6.57143 8.7101 6.40402 8.7101 6.21429V5.14286H7.28153V6.21429C7.28153 6.40402 7.11412 6.57143 6.92439 6.57143H6.2101C6.02037 6.57143 5.85296 6.40402 5.85296 6.21429V2.64286C5.85296 2.45312 6.02037 2.28571 6.2101 2.28571H6.92439C7.11412 2.28571 7.28153 2.45312 7.28153 2.64286V3.71429H8.7101V2.64286C8.7101 2.45312 8.87751 2.28571 9.06724 2.28571H9.78153C9.97126 2.28571 10.1387 2.45312 10.1387 2.64286V6.21429ZM15.853 5.85714C15.853 5.46652 15.5293 5.14286 15.1387 5.14286H11.5672V1.92857C11.5672 1.33705 11.0873 0.857141 10.4958 0.857141H5.49582C4.9043 0.857141 4.42439 1.33705 4.42439 1.92857V5.14286H0.852958C0.462333 5.14286 0.138672 5.46652 0.138672 5.85714V20.1429C0.138672 20.5335 0.462333 20.8571 0.852958 20.8571H15.1387C15.5293 20.8571 15.853 20.5335 15.853 20.1429V5.85714Z" fill="#52A958"/>
</svg>
