<svg width="18" height="18" viewBox="0 0 18 18" fill="none" xmlns="http://www.w3.org/2000/svg">
<path d="M11.274 7.5067C11.274 9.8058 9.7115 12.3728 7.46819 12.3728C6.0173 12.3728 5.19141 11.4241 5.19141 9.76116C5.19141 6.78125 7.17801 4.93973 9.03069 4.93973C10.4369 4.93973 11.274 5.89955 11.274 7.5067ZM17.5686 8.85714C17.5686 3.73438 14.12 0.285713 8.99721 0.285713C4.27623 0.285713 0.425781 4.13616 0.425781 8.85714C0.425781 13.5781 4.27623 17.4286 8.99721 17.4286C10.9727 17.4286 12.9035 16.7366 14.4213 15.4978C14.4994 15.4308 14.5441 15.3415 14.5552 15.2522C14.5664 15.1518 14.5329 15.0625 14.4771 14.9844L14.0195 14.4375C13.8968 14.2812 13.6736 14.2589 13.5173 14.3929C12.245 15.4308 10.6378 16 8.99721 16C5.05748 16 1.85435 12.7969 1.85435 8.85714C1.85435 4.91741 5.05748 1.71429 8.99721 1.71429C13.3387 1.71429 16.1401 4.51562 16.1401 8.85714C16.1401 11.9375 13.6847 12.25 12.9258 12.2723C12.4682 12.2723 12.2896 12.1496 12.2896 11.5469C12.2896 11.3906 12.3008 11.2232 12.3454 11.0112L13.6847 4.15848C13.6959 4.10268 13.6847 4.01339 13.6512 3.97991C13.6177 3.93527 13.5619 3.85714 13.5061 3.85714H12.1892C12.1111 3.85714 12.0329 3.96875 12.0218 4.05804L11.899 4.68304L11.8767 4.89509C11.3186 3.94643 10.2695 3.38839 8.96373 3.38839C5.95033 3.38839 3.48382 6.27902 3.48382 9.83929C3.48382 12.4286 4.85658 13.9129 7.25614 13.9129C8.76283 13.9129 9.96819 13.0647 10.6602 12.1942C10.6936 12.5625 10.8164 12.875 11.0285 13.1205C11.3744 13.5112 11.9213 13.7121 12.6133 13.7121C12.7695 13.7121 12.8253 13.7009 12.9704 13.7009C15.091 13.6339 17.5686 12.3281 17.5686 8.85714Z" fill="#52A958"/>
</svg>
