<svg width="16" height="18" viewBox="0 0 16 18" fill="none" xmlns="http://www.w3.org/2000/svg">
<path d="M14.4244 6.71429C14.4244 7.10491 14.1007 7.42857 13.7101 7.42857C13.3195 7.42857 12.9958 7.10491 12.9958 6.71429C12.9958 6.32366 13.3195 6 13.7101 6C14.1007 6 14.4244 6.32366 14.4244 6.71429ZM15.853 6.71429C15.853 5.53125 14.8931 4.57143 13.7101 4.57143C12.5271 4.57143 11.5672 5.53125 11.5672 6.71429C11.5672 7.65179 12.1588 8.43304 12.9958 8.73437V13.1429C12.9958 14.7165 11.3887 16 9.42439 16C7.4601 16 5.85296 14.7165 5.85296 13.1429V11.6696C8.27483 11.3683 10.1387 9.58259 10.1387 7.42857V1.71429C10.1387 1.32366 9.81501 0.999999 9.42439 0.999999C9.35742 0.999999 9.30162 1.01116 9.24582 1.02232C9.00028 0.587053 8.53153 0.285713 7.99582 0.285713C7.2034 0.285713 6.56724 0.921874 6.56724 1.71429C6.56724 2.5067 7.2034 3.14286 7.99582 3.14286C8.25251 3.14286 8.49805 3.06473 8.7101 2.94196V7.42857C8.7101 9.00223 7.10296 10.2857 5.13867 10.2857C3.17439 10.2857 1.56724 9.00223 1.56724 7.42857V2.94196C1.7793 3.06473 2.02483 3.14286 2.28153 3.14286C3.07394 3.14286 3.7101 2.5067 3.7101 1.71429C3.7101 0.921874 3.07394 0.285713 2.28153 0.285713C1.74581 0.285713 1.27706 0.587053 1.03153 1.02232C0.975725 1.01116 0.919922 0.999999 0.852958 0.999999C0.462333 0.999999 0.138672 1.32366 0.138672 1.71429V7.42857C0.138672 9.58259 2.00251 11.3683 4.42439 11.6696V13.1429C4.42439 15.5089 6.66769 17.4286 9.42439 17.4286C12.1811 17.4286 14.4244 15.5089 14.4244 13.1429V8.73437C15.2614 8.43304 15.853 7.65179 15.853 6.71429Z" fill="#52A958"/>
</svg>
